# MagicaVoxel @ Ephtracy

# group
o 

# material
mtllib bean boi - pill.mtl
usemtl palette

# normals
vn -1 0 0
vn 1 0 0
vn 0 0 1
vn 0 0 -1
vn 0 -1 0
vn 0 1 0

# texcoords
vt 0.0332031 0.5
vt 0.0605469 0.5
vt 0.521484 0.5
vt 0.611328 0.5
vt 0.634766 0.5
vt 0.978516 0.5
vt 0.982422 0.5
vt 0.990234 0.5
vt 0.994141 0.5

# verts
v 0.6 2.3 -0.7
v 0.6 2.3 -0.8
v 0.6 2.4 -0.7
v 0.6 2.4 -0.8
v 0.7 1.6 -0.8
v 0.7 1.6 -1.3
v 0.7 2.3 -0.8
v 0.7 2.4 -0.8
v 0.7 2.6 -0.8
v 0.7 2.6 -1.3
v 0.8 1.3 -1
v 0.8 1.3 -1.1
v 0.8 1.4 -1
v 0.8 1.4 -1.1
v 0.8 1.5 -0.9
v 0.8 1.5 -1
v 0.8 1.5 -1.1
v 0.8 1.5 -1.2
v 0.8 1.6 -0.9
v 0.8 1.6 -1.2
v 0.8 2 -0.7
v 0.8 2 -0.8
v 0.8 2.1 -0.7
v 0.8 2.1 -0.8
v 0.8 2.6 -0.9
v 0.8 2.6 -1.2
v 0.8 2.7 -0.9
v 0.8 2.7 -1.2
v 0.9 2.1 -0.7
v 0.9 2.1 -0.8
v 0.9 2.2 -0.7
v 0.9 2.2 -0.8
v 1.1 1.3 -1
v 1.1 1.3 -1.1
v 1.1 1.4 -1
v 1.1 1.4 -1.1
v 1.1 1.5 -1
v 1.1 1.5 -1.1
v 1.1 2.3 -0.7
v 1.1 2.3 -0.8
v 1.1 2.4 -0.7
v 1.1 2.4 -0.8
v 0.9 1.3 -1
v 0.9 1.3 -1.1
v 0.9 1.4 -1
v 0.9 1.4 -1.1
v 0.9 1.5 -1
v 0.9 1.5 -1.1
v 0.9 2.3 -0.7
v 0.9 2.3 -0.8
v 0.9 2.4 -0.7
v 0.9 2.4 -0.8
v 1.1 2.1 -0.7
v 1.1 2.1 -0.8
v 1.1 2.2 -0.7
v 1.1 2.2 -0.8
v 1.2 1.3 -1
v 1.2 1.3 -1.1
v 1.2 1.4 -1
v 1.2 1.4 -1.1
v 1.2 1.5 -0.9
v 1.2 1.5 -1
v 1.2 1.5 -1.1
v 1.2 1.5 -1.2
v 1.2 1.6 -0.9
v 1.2 1.6 -1.2
v 1.2 2 -0.7
v 1.2 2 -0.8
v 1.2 2.1 -0.7
v 1.2 2.1 -0.8
v 1.2 2.6 -0.9
v 1.2 2.6 -1.2
v 1.2 2.7 -0.9
v 1.2 2.7 -1.2
v 1.3 1.6 -0.8
v 1.3 1.6 -1.3
v 1.3 2.3 -0.8
v 1.3 2.4 -0.8
v 1.3 2.6 -0.8
v 1.3 2.6 -1.3
v 1.4 2.3 -0.7
v 1.4 2.3 -0.8
v 1.4 2.4 -0.7
v 1.4 2.4 -0.8
v 0.6 2.3 -0.7
v 0.6 2.4 -0.7
v 0.8 2 -0.7
v 0.8 2.1 -0.7
v 0.8 2.3 -0.7
v 0.8 2.4 -0.7
v 0.9 2.1 -0.7
v 0.9 2.2 -0.7
v 0.9 2.3 -0.7
v 0.9 2.4 -0.7
v 1.1 2.1 -0.7
v 1.1 2.2 -0.7
v 1.1 2.3 -0.7
v 1.1 2.4 -0.7
v 1.2 2 -0.7
v 1.2 2.1 -0.7
v 1.2 2.3 -0.7
v 1.2 2.4 -0.7
v 1.4 2.3 -0.7
v 1.4 2.4 -0.7
v 0.7 1.6 -0.8
v 0.7 2.3 -0.8
v 0.7 2.4 -0.8
v 0.7 2.6 -0.8
v 0.8 2 -0.8
v 0.8 2.1 -0.8
v 0.8 2.2 -0.8
v 0.8 2.3 -0.8
v 0.8 2.4 -0.8
v 0.9 2.1 -0.8
v 0.9 2.2 -0.8
v 0.9 2.3 -0.8
v 0.9 2.4 -0.8
v 1.1 2.1 -0.8
v 1.1 2.2 -0.8
v 1.1 2.3 -0.8
v 1.1 2.4 -0.8
v 1.2 2 -0.8
v 1.2 2.1 -0.8
v 1.2 2.2 -0.8
v 1.2 2.3 -0.8
v 1.2 2.4 -0.8
v 1.3 1.6 -0.8
v 1.3 2.3 -0.8
v 1.3 2.4 -0.8
v 1.3 2.6 -0.8
v 0.8 1.5 -0.9
v 0.8 1.6 -0.9
v 0.8 2.6 -0.9
v 0.8 2.7 -0.9
v 1.2 1.5 -0.9
v 1.2 1.6 -0.9
v 1.2 2.6 -0.9
v 1.2 2.7 -0.9
v 0.8 1.3 -1
v 0.8 1.4 -1
v 0.8 1.5 -1
v 0.9 1.3 -1
v 0.9 1.4 -1
v 0.9 1.5 -1
v 1.1 1.3 -1
v 1.1 1.4 -1
v 1.1 1.5 -1
v 1.2 1.3 -1
v 1.2 1.4 -1
v 1.2 1.5 -1
v 0.6 2.3 -0.8
v 0.6 2.4 -0.8
v 0.7 2.3 -0.8
v 0.7 2.4 -0.8
v 1.3 2.3 -0.8
v 1.3 2.4 -0.8
v 1.4 2.3 -0.8
v 1.4 2.4 -0.8
v 0.8 1.3 -1.1
v 0.8 1.4 -1.1
v 0.8 1.5 -1.1
v 0.9 1.3 -1.1
v 0.9 1.4 -1.1
v 0.9 1.5 -1.1
v 1.1 1.3 -1.1
v 1.1 1.4 -1.1
v 1.1 1.5 -1.1
v 1.2 1.3 -1.1
v 1.2 1.4 -1.1
v 1.2 1.5 -1.1
v 0.8 1.5 -1.2
v 0.8 1.6 -1.2
v 0.8 2.6 -1.2
v 0.8 2.7 -1.2
v 1.2 1.5 -1.2
v 1.2 1.6 -1.2
v 1.2 2.6 -1.2
v 1.2 2.7 -1.2
v 0.7 1.6 -1.3
v 0.7 2.6 -1.3
v 1.3 1.6 -1.3
v 1.3 2.6 -1.3
v 0.8 1.3 -1
v 0.9 1.3 -1
v 1.1 1.3 -1
v 1.2 1.3 -1
v 0.8 1.3 -1.1
v 0.9 1.3 -1.1
v 1.1 1.3 -1.1
v 1.2 1.3 -1.1
v 0.8 1.5 -0.9
v 1.2 1.5 -0.9
v 0.8 1.5 -1
v 0.9 1.5 -1
v 1.1 1.5 -1
v 1.2 1.5 -1
v 0.8 1.5 -1.1
v 0.9 1.5 -1.1
v 1.1 1.5 -1.1
v 1.2 1.5 -1.1
v 0.8 1.5 -1.2
v 1.2 1.5 -1.2
v 0.7 1.6 -0.8
v 1.3 1.6 -0.8
v 0.8 1.6 -0.9
v 1.2 1.6 -0.9
v 0.8 1.6 -1.2
v 1.2 1.6 -1.2
v 0.7 1.6 -1.3
v 1.3 1.6 -1.3
v 0.8 2 -0.7
v 1.2 2 -0.7
v 0.8 2 -0.8
v 1.2 2 -0.8
v 0.6 2.3 -0.7
v 0.8 2.3 -0.7
v 0.9 2.3 -0.7
v 1.1 2.3 -0.7
v 1.2 2.3 -0.7
v 1.4 2.3 -0.7
v 0.6 2.3 -0.8
v 0.7 2.3 -0.8
v 0.8 2.3 -0.8
v 0.9 2.3 -0.8
v 1.1 2.3 -0.8
v 1.2 2.3 -0.8
v 1.3 2.3 -0.8
v 1.4 2.3 -0.8
v 0.8 2.1 -0.7
v 0.9 2.1 -0.7
v 1.1 2.1 -0.7
v 1.2 2.1 -0.7
v 0.8 2.1 -0.8
v 0.9 2.1 -0.8
v 1.1 2.1 -0.8
v 1.2 2.1 -0.8
v 0.9 2.2 -0.7
v 1.1 2.2 -0.7
v 0.9 2.2 -0.8
v 1.1 2.2 -0.8
v 0.6 2.4 -0.7
v 0.8 2.4 -0.7
v 0.9 2.4 -0.7
v 1.1 2.4 -0.7
v 1.2 2.4 -0.7
v 1.4 2.4 -0.7
v 0.6 2.4 -0.8
v 0.7 2.4 -0.8
v 0.8 2.4 -0.8
v 0.9 2.4 -0.8
v 1.1 2.4 -0.8
v 1.2 2.4 -0.8
v 1.3 2.4 -0.8
v 1.4 2.4 -0.8
v 0.7 2.6 -0.8
v 1.3 2.6 -0.8
v 0.8 2.6 -0.9
v 1.2 2.6 -0.9
v 0.8 2.6 -1.2
v 1.2 2.6 -1.2
v 0.7 2.6 -1.3
v 1.3 2.6 -1.3
v 0.8 2.7 -0.9
v 1.2 2.7 -0.9
v 0.8 2.7 -1.2
v 1.2 2.7 -1.2

# faces
f 3/7/1 2/7/1 1/7/1
f 4/7/1 2/7/1 3/7/1
f 7/1/1 6/1/1 5/1/1
f 8/1/1 6/1/1 7/1/1
f 9/1/1 6/1/1 8/1/1
f 10/1/1 6/1/1 9/1/1
f 13/9/1 12/9/1 11/9/1
f 14/9/1 12/9/1 13/9/1
f 16/8/1 14/8/1 13/8/1
f 17/8/1 14/8/1 16/8/1
f 19/1/1 17/1/1 16/1/1
f 19/1/1 18/1/1 17/1/1
f 19/1/1 16/1/1 15/1/1
f 20/1/1 18/1/1 19/1/1
f 23/1/1 22/1/1 21/1/1
f 24/1/1 22/1/1 23/1/1
f 27/1/1 26/1/1 25/1/1
f 28/1/1 26/1/1 27/1/1
f 31/1/1 30/1/1 29/1/1
f 32/1/1 30/1/1 31/1/1
f 35/9/1 34/9/1 33/9/1
f 36/9/1 34/9/1 35/9/1
f 37/8/1 36/8/1 35/8/1
f 38/8/1 36/8/1 37/8/1
f 41/7/1 40/7/1 39/7/1
f 42/7/1 40/7/1 41/7/1
f 43/9/2 44/9/2 45/9/2
f 45/9/2 44/9/2 46/9/2
f 45/8/2 46/8/2 47/8/2
f 47/8/2 46/8/2 48/8/2
f 49/6/2 50/6/2 51/6/2
f 51/6/2 50/6/2 52/6/2
f 53/1/2 54/1/2 55/1/2
f 55/1/2 54/1/2 56/1/2
f 57/9/2 58/9/2 59/9/2
f 59/9/2 58/9/2 60/9/2
f 59/8/2 60/8/2 62/8/2
f 62/8/2 60/8/2 63/8/2
f 62/1/2 63/1/2 65/1/2
f 63/1/2 64/1/2 65/1/2
f 61/1/2 62/1/2 65/1/2
f 65/1/2 64/1/2 66/1/2
f 67/1/2 68/1/2 69/1/2
f 69/1/2 68/1/2 70/1/2
f 71/1/2 72/1/2 73/1/2
f 73/1/2 72/1/2 74/1/2
f 75/1/2 76/1/2 77/1/2
f 77/1/2 76/1/2 78/1/2
f 78/1/2 76/1/2 79/1/2
f 79/1/2 76/1/2 80/1/2
f 81/6/2 82/6/2 83/6/2
f 83/6/2 82/6/2 84/6/2
f 89/7/3 86/7/3 85/7/3
f 90/7/3 86/7/3 89/7/3
f 91/1/3 88/1/3 87/1/3
f 93/6/3 90/6/3 89/6/3
f 94/6/3 90/6/3 93/6/3
f 95/1/3 92/1/3 91/1/3
f 95/1/3 91/1/3 87/1/3
f 96/1/3 92/1/3 95/1/3
f 99/1/3 95/1/3 87/1/3
f 100/1/3 95/1/3 99/1/3
f 101/7/3 98/7/3 97/7/3
f 102/7/3 98/7/3 101/7/3
f 103/6/3 102/6/3 101/6/3
f 104/6/3 102/6/3 103/6/3
f 109/1/3 106/1/3 105/1/3
f 110/1/3 106/1/3 109/1/3
f 111/1/3 106/1/3 110/1/3
f 112/1/3 106/1/3 111/1/3
f 113/1/3 108/1/3 107/1/3
f 114/1/3 111/1/3 110/1/3
f 115/9/3 112/9/3 111/9/3
f 115/1/3 111/1/3 114/1/3
f 116/9/3 112/9/3 115/9/3
f 117/1/3 108/1/3 113/1/3
f 119/1/3 116/1/3 115/1/3
f 119/1/3 117/1/3 116/1/3
f 120/1/3 117/1/3 119/1/3
f 121/1/3 108/1/3 117/1/3
f 121/1/3 117/1/3 120/1/3
f 122/1/3 109/1/3 105/1/3
f 123/1/3 119/1/3 118/1/3
f 124/9/3 120/9/3 119/9/3
f 124/1/3 119/1/3 123/1/3
f 125/9/3 120/9/3 124/9/3
f 126/1/3 108/1/3 121/1/3
f 127/1/3 125/1/3 124/1/3
f 127/1/3 123/1/3 122/1/3
f 127/1/3 122/1/3 105/1/3
f 127/1/3 124/1/3 123/1/3
f 128/1/3 125/1/3 127/1/3
f 129/1/3 108/1/3 126/1/3
f 130/1/3 108/1/3 129/1/3
f 135/1/3 132/1/3 131/1/3
f 136/1/3 132/1/3 135/1/3
f 137/1/3 134/1/3 133/1/3
f 138/1/3 134/1/3 137/1/3
f 142/9/3 140/9/3 139/9/3
f 143/8/3 141/8/3 140/8/3
f 143/9/3 140/9/3 142/9/3
f 144/8/3 141/8/3 143/8/3
f 148/9/3 146/9/3 145/9/3
f 149/8/3 147/8/3 146/8/3
f 149/9/3 146/9/3 148/9/3
f 150/8/3 147/8/3 149/8/3
f 151/7/4 152/7/4 153/7/4
f 153/7/4 152/7/4 154/7/4
f 155/6/4 156/6/4 157/6/4
f 157/6/4 156/6/4 158/6/4
f 159/9/4 160/9/4 162/9/4
f 160/8/4 161/8/4 163/8/4
f 162/9/4 160/9/4 163/9/4
f 163/8/4 161/8/4 164/8/4
f 165/9/4 166/9/4 168/9/4
f 166/8/4 167/8/4 169/8/4
f 168/9/4 166/9/4 169/9/4
f 169/8/4 167/8/4 170/8/4
f 171/1/4 172/1/4 175/1/4
f 175/1/4 172/1/4 176/1/4
f 173/1/4 174/1/4 177/1/4
f 177/1/4 174/1/4 178/1/4
f 179/1/4 180/1/4 181/1/4
f 181/1/4 180/1/4 182/1/4
f 187/9/5 184/9/5 183/9/5
f 188/9/5 184/9/5 187/9/5
f 189/9/5 186/9/5 185/9/5
f 190/9/5 186/9/5 189/9/5
f 193/1/5 192/1/5 191/1/5
f 194/1/5 192/1/5 193/1/5
f 195/1/5 192/1/5 194/1/5
f 196/1/5 192/1/5 195/1/5
f 198/1/5 195/1/5 194/1/5
f 199/1/5 195/1/5 198/1/5
f 201/1/5 198/1/5 197/1/5
f 201/1/5 200/1/5 199/1/5
f 201/1/5 199/1/5 198/1/5
f 202/1/5 200/1/5 201/1/5
f 205/1/5 204/1/5 203/1/5
f 206/1/5 204/1/5 205/1/5
f 207/1/5 205/1/5 203/1/5
f 208/1/5 204/1/5 206/1/5
f 209/1/5 207/1/5 203/1/5
f 209/1/5 208/1/5 207/1/5
f 210/1/5 204/1/5 208/1/5
f 210/1/5 208/1/5 209/1/5
f 213/1/5 212/1/5 211/1/5
f 214/1/5 212/1/5 213/1/5
f 221/7/5 216/7/5 215/7/5
f 222/7/5 216/7/5 221/7/5
f 223/6/5 217/6/5 216/6/5
f 223/7/5 216/7/5 222/7/5
f 224/6/5 217/6/5 223/6/5
f 225/7/5 219/7/5 218/7/5
f 226/6/5 220/6/5 219/6/5
f 226/7/5 219/7/5 225/7/5
f 227/6/5 220/6/5 226/6/5
f 228/6/5 220/6/5 227/6/5
f 229/1/6 230/1/6 233/1/6
f 233/1/6 230/1/6 234/1/6
f 231/1/6 232/1/6 235/1/6
f 235/1/6 232/1/6 236/1/6
f 237/1/6 238/1/6 239/1/6
f 239/1/6 238/1/6 240/1/6
f 241/7/6 242/7/6 247/7/6
f 247/7/6 242/7/6 248/7/6
f 242/6/6 243/6/6 249/6/6
f 248/7/6 242/7/6 249/7/6
f 249/6/6 243/6/6 250/6/6
f 244/7/6 245/7/6 251/7/6
f 245/6/6 246/6/6 252/6/6
f 251/7/6 245/7/6 252/7/6
f 252/6/6 246/6/6 253/6/6
f 253/6/6 246/6/6 254/6/6
f 255/1/6 256/1/6 257/1/6
f 257/1/6 256/1/6 258/1/6
f 255/1/6 257/1/6 259/1/6
f 258/1/6 256/1/6 260/1/6
f 255/1/6 259/1/6 261/1/6
f 259/1/6 260/1/6 261/1/6
f 260/1/6 256/1/6 262/1/6
f 261/1/6 260/1/6 262/1/6
f 263/1/6 264/1/6 265/1/6
f 265/1/6 264/1/6 266/1/6
